<?xml version="1.0" encoding="UTF-8"?>
<svg id="Layer_2" data-name="Layer 2" xmlns="http://www.w3.org/2000/svg" xmlns:xlink="http://www.w3.org/1999/xlink" viewBox="0 0 161.03 1081">
  <defs>
    <style>
      .cls-1 {
        fill: #fff;
      }

      .cls-1, .cls-2 {
        stroke-width: 0px;
      }

      .cls-2 {
        fill: #ce3232;
      }
    </style>
  </defs>
  <g id="Layer_1-2" data-name="Layer 1">
    <path class="cls-2" d="M78,1081H0V0h78c72,247-62,1068,0,1081Z"/>
    <g>
      <path class="cls-1" d="M161.03,106.35c-.52,15.74-6.74,29.01-15.86,39.01H51.33c-9.04-10.81-13.48-25.39-13.19-42.68,1.8-17.21,7.02-30.8,15.63-40.81h91.17c10.09,11.6,16.09,27.2,16.09,44.47Z"/>
      <path class="cls-1" d="M144.95,61.88H53.78c10.28-11.97,25.39-18.82,45.3-20.59.17-.01.35-.03.52-.04,18.33,0,34.29,7.9,45.35,20.63Z"/>
      <path class="cls-1" d="M145.17,145.37c-12.26,13.45-29.72,20.97-45.58,20.62-.17-.01-.35-.01-.52-.03-21.62-1.07-37.59-8.45-47.74-20.59h93.84Z"/>
      <image width="200" height="200" transform="translate(39.32 43.36) scale(.6)" xlink:href="../../../GLC-removebg-preview.png"/>
    </g>
  </g>
</svg>